<svg width="55" height="55" viewBox="0 0 55 55" fill="none" xmlns="http://www.w3.org/2000/svg">
<rect width="55" height="55" fill="black"/>
<path d="M10.4078 7.20193L14.0462 34.2366H14.1308L17.727 7.20193H23.0155V36.8173H17.9385V10.8827H17.8539L14.3424 36.8173H9.13853L5.54237 10.8827H5.45776V36.8173H5.20391V7.20193H10.4078ZM30.1569 7.20193L33.7953 34.2366H33.8799L37.4761 7.20193H42.7646V36.8173H37.6876V10.8827H37.603L34.0915 36.8173H28.8876L25.2915 10.8827H25.2069V36.8173H24.953V7.20193H30.1569ZM49.779 7.20193V36.8173H44.7021V7.20193H49.779Z" fill="white"/>
<path d="M4.65962 45.8155V50.7443C4.65962 50.9863 4.72415 51.1476 4.85322 51.2283C4.98766 51.3143 5.17051 51.3573 5.40175 51.3573V51.5267C5.27268 51.5213 5.08984 51.5133 4.85322 51.5025C4.62197 51.4971 4.37459 51.4945 4.11108 51.4945C3.92824 51.4945 3.74539 51.4971 3.56255 51.5025C3.37971 51.5133 3.23988 51.5213 3.14308 51.5267V51.3573C3.32593 51.3573 3.45499 51.3197 3.53028 51.2444C3.60557 51.1691 3.64322 51.0293 3.64322 50.8249V46.7835C3.64322 46.5415 3.60557 46.3641 3.53028 46.2511C3.45499 46.1328 3.30979 46.0737 3.09468 46.0737V45.9043C3.26677 45.9204 3.43348 45.9285 3.59482 45.9285C3.79917 45.9285 3.99008 45.9204 4.16755 45.9043C4.34502 45.8827 4.50904 45.8532 4.65962 45.8155ZM5.92608 45.7833C6.20573 45.7833 6.45579 45.8612 6.67628 46.0172C6.89677 46.1678 7.06886 46.3909 7.19255 46.6867C7.32162 46.9825 7.38615 47.3536 7.38615 47.7999C7.38615 48.1549 7.34582 48.4802 7.26515 48.776C7.18448 49.0664 7.06348 49.3165 6.90215 49.5262C6.74619 49.7359 6.55259 49.8973 6.32135 50.0102C6.09011 50.1231 5.82659 50.1796 5.53082 50.1796C5.30495 50.1796 5.10328 50.1366 4.92582 50.0505C4.74835 49.9645 4.61928 49.8489 4.53862 49.7037L4.61928 49.5907C4.68382 49.7037 4.77255 49.7951 4.88548 49.865C4.99842 49.9349 5.13286 49.9699 5.28882 49.9699C5.54695 49.9699 5.75131 49.8865 5.90188 49.7198C6.05246 49.5477 6.15733 49.3084 6.21648 49.0019C6.28102 48.6953 6.31328 48.3404 6.31328 47.9371C6.31328 47.4907 6.28371 47.1331 6.22455 46.8642C6.16539 46.5953 6.07666 46.4017 5.95835 46.2834C5.84004 46.1597 5.70022 46.0979 5.53888 46.0979C5.31839 46.0979 5.11942 46.1866 4.94195 46.3641C4.76986 46.5361 4.66499 46.7889 4.62735 47.1223L4.57088 46.8965C4.65693 46.5415 4.82095 46.2673 5.06295 46.0737C5.30495 45.8801 5.59266 45.7833 5.92608 45.7833ZM12.1114 45.7833C12.4825 45.7833 12.8105 45.8585 13.0955 46.0091C13.3859 46.1543 13.6145 46.3883 13.7812 46.7109C13.9533 47.0336 14.0393 47.4584 14.0393 47.9855C14.0393 48.5125 13.9533 48.9373 13.7812 49.26C13.6145 49.5827 13.3859 49.8166 13.0955 49.9618C12.8105 50.107 12.4825 50.1796 12.1114 50.1796C11.7403 50.1796 11.4096 50.107 11.1192 49.9618C10.8288 49.8166 10.6002 49.5827 10.4335 49.26C10.2668 48.9373 10.1835 48.5125 10.1835 47.9855C10.1835 47.4584 10.2668 47.0336 10.4335 46.7109C10.6002 46.3883 10.8288 46.1543 11.1192 46.0091C11.4096 45.8585 11.7403 45.7833 12.1114 45.7833ZM12.1114 45.9446C11.8586 45.9446 11.6516 46.1059 11.4903 46.4286C11.3343 46.7459 11.2563 47.2648 11.2563 47.9855C11.2563 48.7061 11.3343 49.225 11.4903 49.5423C11.6516 49.8596 11.8586 50.0183 12.1114 50.0183C12.3588 50.0183 12.5631 49.8596 12.7245 49.5423C12.8858 49.225 12.9665 48.7061 12.9665 47.9855C12.9665 47.2648 12.8858 46.7459 12.7245 46.4286C12.5631 46.1059 12.3588 45.9446 12.1114 45.9446ZM19.3842 45.7833C19.551 45.7833 19.6881 45.8182 19.7956 45.8881C19.9086 45.958 19.9919 46.0468 20.0457 46.1543C20.0995 46.2619 20.1264 46.3748 20.1264 46.4931C20.1264 46.6706 20.0726 46.8185 19.965 46.9368C19.8629 47.0551 19.7257 47.1143 19.5536 47.1143C19.3923 47.1143 19.2606 47.0712 19.1584 46.9852C19.0562 46.8991 19.0051 46.7808 19.0051 46.6303C19.0051 46.4958 19.0374 46.3829 19.1019 46.2915C19.1718 46.2 19.2498 46.1274 19.3358 46.0737C19.2767 46.0414 19.2095 46.0306 19.1342 46.0414C19.0051 46.0521 18.8868 46.0979 18.7792 46.1785C18.6717 46.2592 18.5803 46.3587 18.505 46.477C18.4297 46.5953 18.3705 46.7217 18.3275 46.8561C18.2899 46.9906 18.271 47.1196 18.271 47.2433V49.2358C18.271 49.4993 18.3383 49.6768 18.4727 49.7682C18.6072 49.8542 18.8034 49.8973 19.0616 49.8973V50.0667C18.9379 50.0613 18.7577 50.0559 18.5211 50.0505C18.2899 50.0398 18.0479 50.0344 17.7951 50.0344C17.5854 50.0344 17.3756 50.0398 17.1659 50.0505C16.9616 50.0559 16.8083 50.0613 16.7061 50.0667V49.8973C16.9051 49.8973 17.0449 49.8569 17.1256 49.7763C17.2116 49.6956 17.2546 49.5423 17.2546 49.3165V46.7755C17.2546 46.5335 17.2143 46.356 17.1336 46.2431C17.0584 46.1247 16.9158 46.0656 16.7061 46.0656V45.8962C16.8782 45.9123 17.0449 45.9204 17.2062 45.9204C17.4052 45.9204 17.5934 45.9123 17.7709 45.8962C17.9538 45.8747 18.1205 45.8451 18.271 45.8075V46.6464C18.3356 46.4958 18.4189 46.356 18.5211 46.2269C18.6287 46.0979 18.755 45.993 18.9002 45.9123C19.0508 45.8263 19.2122 45.7833 19.3842 45.7833ZM24.0709 44.5732V45.9043H25.1034V46.0656H24.0709V49.2761C24.0709 49.4697 24.1058 49.6069 24.1757 49.6875C24.2456 49.7682 24.3451 49.8085 24.4742 49.8085C24.5979 49.8085 24.7108 49.7628 24.813 49.6714C24.9152 49.5746 25.0066 49.4159 25.0873 49.1955L25.2325 49.26C25.1518 49.5235 25.0254 49.744 24.8533 49.9215C24.6866 50.0935 24.45 50.1796 24.1435 50.1796C23.9606 50.1796 23.8047 50.1554 23.6756 50.107C23.5519 50.064 23.4443 49.9994 23.3529 49.9134C23.2346 49.7897 23.1539 49.6418 23.1109 49.4697C23.0733 49.2976 23.0545 49.0691 23.0545 48.7841V46.0656H22.3446V45.9043H23.0545V44.783C23.2481 44.7776 23.4282 44.7588 23.5949 44.7265C23.7616 44.6943 23.9203 44.6432 24.0709 44.5732ZM29.6011 43.7585C29.7785 43.7585 29.9318 43.7827 30.0609 43.8311C30.1953 43.8741 30.3109 43.9333 30.4077 44.0086C30.4884 44.0731 30.5529 44.1538 30.6013 44.2506C30.6551 44.3474 30.682 44.4549 30.682 44.5732C30.682 44.7185 30.6309 44.8421 30.5287 44.9443C30.4319 45.0465 30.3082 45.0976 30.1577 45.0976C29.9963 45.0976 29.8619 45.0519 29.7543 44.9605C29.6521 44.8637 29.6011 44.7319 29.6011 44.5652C29.6011 44.4361 29.636 44.3259 29.7059 44.2345C29.7812 44.1377 29.8861 44.0704 30.0205 44.0328C30.0044 43.9951 29.9694 43.9629 29.9157 43.936C29.8619 43.9091 29.7893 43.8957 29.6979 43.8957C29.5903 43.8957 29.4962 43.9172 29.4155 43.9602C29.3402 44.0032 29.2784 44.0624 29.23 44.1377C29.1762 44.2291 29.1386 44.3635 29.1171 44.541C29.0955 44.7185 29.0848 44.9873 29.0848 45.3477V45.9043H29.9479V46.0656H29.0848V49.2358C29.0848 49.4993 29.1547 49.6768 29.2945 49.7682C29.4397 49.8542 29.6333 49.8973 29.8753 49.8973V50.0667C29.7409 50.0613 29.5527 50.0559 29.3107 50.0505C29.0687 50.0398 28.8105 50.0344 28.5363 50.0344C28.3427 50.0344 28.1491 50.0398 27.9555 50.0505C27.7619 50.0559 27.6167 50.0613 27.5199 50.0667V49.8973C27.7188 49.8973 27.8587 49.8569 27.9393 49.7763C28.0254 49.6956 28.0684 49.5423 28.0684 49.3165V46.0656H27.4876V45.9043H28.0684C28.0684 45.587 28.0845 45.3235 28.1168 45.1137C28.1491 44.8986 28.1975 44.7158 28.262 44.5652C28.3319 44.4146 28.426 44.2802 28.5443 44.1619C28.6573 44.0435 28.8051 43.9467 28.988 43.8715C29.1762 43.7962 29.3806 43.7585 29.6011 43.7585ZM34.3455 45.7833C34.7165 45.7833 35.0446 45.8585 35.3296 46.0091C35.62 46.1543 35.8485 46.3883 36.0153 46.7109C36.1873 47.0336 36.2734 47.4584 36.2734 47.9855C36.2734 48.5125 36.1873 48.9373 36.0153 49.26C35.8485 49.5827 35.62 49.8166 35.3296 49.9618C35.0446 50.107 34.7165 50.1796 34.3455 50.1796C33.9744 50.1796 33.6437 50.107 33.3533 49.9618C33.0629 49.8166 32.8343 49.5827 32.6676 49.26C32.5009 48.9373 32.4175 48.5125 32.4175 47.9855C32.4175 47.4584 32.5009 47.0336 32.6676 46.7109C32.8343 46.3883 33.0629 46.1543 33.3533 46.0091C33.6437 45.8585 33.9744 45.7833 34.3455 45.7833ZM34.3455 45.9446C34.0927 45.9446 33.8857 46.1059 33.7243 46.4286C33.5684 46.7459 33.4904 47.2648 33.4904 47.9855C33.4904 48.7061 33.5684 49.225 33.7243 49.5423C33.8857 49.8596 34.0927 50.0183 34.3455 50.0183C34.5928 50.0183 34.7972 49.8596 34.9585 49.5423C35.1199 49.225 35.2005 48.7061 35.2005 47.9855C35.2005 47.2648 35.1199 46.7459 34.9585 46.4286C34.7972 46.1059 34.5928 45.9446 34.3455 45.9446ZM40.3779 43.7505V49.3165C40.3779 49.5423 40.4183 49.6956 40.4989 49.7763C40.585 49.8569 40.7275 49.8973 40.9265 49.8973V50.0667C40.8297 50.0613 40.6818 50.0559 40.4828 50.0505C40.2892 50.0398 40.0902 50.0344 39.8859 50.0344C39.6869 50.0344 39.4825 50.0398 39.2728 50.0505C39.0684 50.0559 38.9152 50.0613 38.813 50.0667V49.8973C39.012 49.8973 39.1518 49.8569 39.2325 49.7763C39.3185 49.6956 39.3615 49.5423 39.3615 49.3165V44.7185C39.3615 44.4765 39.3239 44.299 39.2486 44.1861C39.1733 44.0677 39.0281 44.0086 38.813 44.0086V43.8392C38.9851 43.8553 39.1518 43.8634 39.3131 43.8634C39.5175 43.8634 39.7084 43.8553 39.8859 43.8392C40.0633 43.8177 40.2274 43.7881 40.3779 43.7505ZM44.4414 43.8392C44.635 43.8392 44.7936 43.893 44.9173 44.0005C45.041 44.1081 45.1029 44.2506 45.1029 44.428C45.1029 44.6055 45.041 44.748 44.9173 44.8556C44.7936 44.9631 44.635 45.0169 44.4414 45.0169C44.2478 45.0169 44.0891 44.9631 43.9655 44.8556C43.8418 44.748 43.7799 44.6055 43.7799 44.428C43.7799 44.2506 43.8418 44.1081 43.9655 44.0005C44.0891 43.893 44.2478 43.8392 44.4414 43.8392ZM45.0061 45.8075V49.3165C45.0061 49.5423 45.0464 49.6956 45.1271 49.7763C45.2131 49.8569 45.3556 49.8973 45.5546 49.8973V50.0667C45.4578 50.0613 45.3099 50.0559 45.1109 50.0505C44.9119 50.0398 44.7103 50.0344 44.5059 50.0344C44.3069 50.0344 44.1053 50.0398 43.9009 50.0505C43.6966 50.0559 43.5433 50.0613 43.4411 50.0667V49.8973C43.6401 49.8973 43.7799 49.8569 43.8606 49.7763C43.9466 49.6956 43.9897 49.5423 43.9897 49.3165V46.7835C43.9897 46.5361 43.9493 46.356 43.8687 46.2431C43.7934 46.1247 43.6509 46.0656 43.4411 46.0656V45.8962C43.6132 45.9123 43.7799 45.9204 43.9413 45.9204C44.1402 45.9204 44.3285 45.9123 44.5059 45.8962C44.6888 45.8747 44.8555 45.8451 45.0061 45.8075ZM50.1092 45.7833C50.4802 45.7833 50.8083 45.8585 51.0933 46.0091C51.3837 46.1543 51.6123 46.3883 51.779 46.7109C51.9511 47.0336 52.0371 47.4584 52.0371 47.9855C52.0371 48.5125 51.9511 48.9373 51.779 49.26C51.6123 49.5827 51.3837 49.8166 51.0933 49.9618C50.8083 50.107 50.4802 50.1796 50.1092 50.1796C49.7381 50.1796 49.4074 50.107 49.117 49.9618C48.8266 49.8166 48.598 49.5827 48.4313 49.26C48.2646 48.9373 48.1812 48.5125 48.1812 47.9855C48.1812 47.4584 48.2646 47.0336 48.4313 46.7109C48.598 46.3883 48.8266 46.1543 49.117 46.0091C49.4074 45.8585 49.7381 45.7833 50.1092 45.7833ZM50.1092 45.9446C49.8564 45.9446 49.6494 46.1059 49.488 46.4286C49.3321 46.7459 49.2541 47.2648 49.2541 47.9855C49.2541 48.7061 49.3321 49.225 49.488 49.5423C49.6494 49.8596 49.8564 50.0183 50.1092 50.0183C50.3565 50.0183 50.5609 49.8596 50.7222 49.5423C50.8836 49.225 50.9642 48.7061 50.9642 47.9855C50.9642 47.2648 50.8836 46.7459 50.7222 46.4286C50.5609 46.1059 50.3565 45.9446 50.1092 45.9446Z" fill="white"/>
<rect x="24.9333" y="10.2667" width="0.733333" height="26.4" fill="white"/>
<path d="M5.49997 7.33331L5.86663 10.2666V36.6666H5.1333L5.49997 7.33331Z" fill="white"/>
</svg>
