<svg width="75" height="75" viewBox="0 0 75 75" fill="none" xmlns="http://www.w3.org/2000/svg">
<rect width="75" height="75" fill="black"/>
<path d="M14.1924 9.54806L19.1539 46.4134H19.2693L24.1731 9.54806H31.3847V49.9327H24.4616V14.5673H24.3462L19.5577 49.9327H12.4616L7.55775 14.5673H7.44236V49.9327H7.09621V9.54806H14.1924ZM41.123 9.54806L46.0845 46.4134H46.1999L51.1037 9.54806H58.3153V49.9327H51.3922V14.5673H51.2768L46.4883 49.9327H39.3922L34.4883 14.5673H34.373V49.9327H34.0268V9.54806H41.123ZM67.8805 9.54806V49.9327H60.9574V9.54806H67.8805Z" fill="white"/>
<path d="M6.354 62.203V68.924C6.354 69.254 6.442 69.474 6.618 69.584C6.80133 69.7013 7.05067 69.76 7.366 69.76V69.991C7.19 69.9837 6.94067 69.9727 6.618 69.958C6.30267 69.9507 5.96533 69.947 5.606 69.947C5.35667 69.947 5.10733 69.9507 4.858 69.958C4.60867 69.9727 4.418 69.9837 4.286 69.991V69.76C4.53533 69.76 4.71133 69.7087 4.814 69.606C4.91667 69.5033 4.968 69.3127 4.968 69.034V63.523C4.968 63.193 4.91667 62.951 4.814 62.797C4.71133 62.6357 4.51333 62.555 4.22 62.555V62.324C4.45467 62.346 4.682 62.357 4.902 62.357C5.18067 62.357 5.441 62.346 5.683 62.324C5.925 62.2947 6.14867 62.2543 6.354 62.203ZM8.081 62.159C8.46233 62.159 8.80333 62.2653 9.104 62.478C9.40467 62.6833 9.63933 62.9877 9.808 63.391C9.984 63.7943 10.072 64.3003 10.072 64.909C10.072 65.393 10.017 65.8367 9.907 66.24C9.797 66.636 9.632 66.977 9.412 67.263C9.19933 67.549 8.93533 67.769 8.62 67.923C8.30467 68.077 7.94533 68.154 7.542 68.154C7.234 68.154 6.959 68.0953 6.717 67.978C6.475 67.8607 6.299 67.703 6.189 67.505L6.299 67.351C6.387 67.505 6.508 67.6297 6.662 67.725C6.816 67.8203 6.99933 67.868 7.212 67.868C7.564 67.868 7.84267 67.7543 8.048 67.527C8.25333 67.2923 8.39633 66.966 8.477 66.548C8.565 66.13 8.609 65.646 8.609 65.096C8.609 64.4873 8.56867 63.9997 8.488 63.633C8.40733 63.2663 8.28633 63.0023 8.125 62.841C7.96367 62.6723 7.773 62.588 7.553 62.588C7.25233 62.588 6.981 62.709 6.739 62.951C6.50433 63.1857 6.36133 63.5303 6.31 63.985L6.233 63.677C6.35033 63.193 6.574 62.819 6.904 62.555C7.234 62.291 7.62633 62.159 8.081 62.159ZM16.5155 62.159C17.0215 62.159 17.4688 62.2617 17.8575 62.467C18.2535 62.665 18.5652 62.984 18.7925 63.424C19.0272 63.864 19.1445 64.4433 19.1445 65.162C19.1445 65.8807 19.0272 66.46 18.7925 66.9C18.5652 67.34 18.2535 67.659 17.8575 67.857C17.4688 68.055 17.0215 68.154 16.5155 68.154C16.0095 68.154 15.5585 68.055 15.1625 67.857C14.7665 67.659 14.4548 67.34 14.2275 66.9C14.0002 66.46 13.8865 65.8807 13.8865 65.162C13.8865 64.4433 14.0002 63.864 14.2275 63.424C14.4548 62.984 14.7665 62.665 15.1625 62.467C15.5585 62.2617 16.0095 62.159 16.5155 62.159ZM16.5155 62.379C16.1708 62.379 15.8885 62.599 15.6685 63.039C15.4558 63.4717 15.3495 64.1793 15.3495 65.162C15.3495 66.1447 15.4558 66.8523 15.6685 67.285C15.8885 67.7177 16.1708 67.934 16.5155 67.934C16.8528 67.934 17.1315 67.7177 17.3515 67.285C17.5715 66.8523 17.6815 66.1447 17.6815 65.162C17.6815 64.1793 17.5715 63.4717 17.3515 63.039C17.1315 62.599 16.8528 62.379 16.5155 62.379ZM26.433 62.159C26.6604 62.159 26.8474 62.2067 26.994 62.302C27.148 62.3973 27.2617 62.5183 27.335 62.665C27.4084 62.8117 27.445 62.9657 27.445 63.127C27.445 63.369 27.3717 63.5707 27.225 63.732C27.0857 63.8933 26.8987 63.974 26.664 63.974C26.444 63.974 26.2644 63.9153 26.125 63.798C25.9857 63.6807 25.916 63.5193 25.916 63.314C25.916 63.1307 25.96 62.9767 26.048 62.852C26.1434 62.7273 26.2497 62.6283 26.367 62.555C26.2864 62.511 26.1947 62.4963 26.092 62.511C25.916 62.5257 25.7547 62.588 25.608 62.698C25.4614 62.808 25.3367 62.9437 25.234 63.105C25.1314 63.2663 25.0507 63.4387 24.992 63.622C24.9407 63.8053 24.915 63.9813 24.915 64.15V66.867C24.915 67.2263 25.0067 67.4683 25.19 67.593C25.3734 67.7103 25.641 67.769 25.993 67.769V68C25.8244 67.9927 25.5787 67.9853 25.256 67.978C24.9407 67.9633 24.6107 67.956 24.266 67.956C23.98 67.956 23.694 67.9633 23.408 67.978C23.1294 67.9853 22.9204 67.9927 22.781 68V67.769C23.0524 67.769 23.243 67.714 23.353 67.604C23.4704 67.494 23.529 67.285 23.529 66.977V63.512C23.529 63.182 23.474 62.94 23.364 62.786C23.2614 62.6247 23.067 62.544 22.781 62.544V62.313C23.0157 62.335 23.243 62.346 23.463 62.346C23.7344 62.346 23.991 62.335 24.233 62.313C24.4824 62.2837 24.7097 62.2433 24.915 62.192V63.336C25.003 63.1307 25.1167 62.94 25.256 62.764C25.4027 62.588 25.575 62.445 25.773 62.335C25.9784 62.2177 26.1984 62.159 26.433 62.159ZM32.8239 60.509V62.324H34.2319V62.544H32.8239V66.922C32.8239 67.186 32.8715 67.373 32.9669 67.483C33.0622 67.593 33.1979 67.648 33.3739 67.648C33.5425 67.648 33.6965 67.5857 33.8359 67.461C33.9752 67.329 34.0999 67.1127 34.2099 66.812L34.4079 66.9C34.2979 67.2593 34.1255 67.56 33.8909 67.802C33.6635 68.0367 33.3409 68.154 32.9229 68.154C32.6735 68.154 32.4609 68.121 32.2849 68.055C32.1162 67.9963 31.9695 67.9083 31.8449 67.791C31.6835 67.6223 31.5735 67.4207 31.5149 67.186C31.4635 66.9513 31.4379 66.6397 31.4379 66.251V62.544H30.4699V62.324H31.4379V60.795C31.7019 60.7877 31.9475 60.762 32.1749 60.718C32.4022 60.674 32.6185 60.6043 32.8239 60.509ZM40.3651 59.398C40.6071 59.398 40.8161 59.431 40.9921 59.497C41.1754 59.5557 41.3331 59.6363 41.4651 59.739C41.5751 59.827 41.6631 59.937 41.7291 60.069C41.8024 60.201 41.8391 60.3477 41.8391 60.509C41.8391 60.707 41.7694 60.8757 41.6301 61.015C41.4981 61.1543 41.3294 61.224 41.1241 61.224C40.9041 61.224 40.7207 61.1617 40.5741 61.037C40.4347 60.905 40.3651 60.7253 40.3651 60.498C40.3651 60.322 40.4127 60.1717 40.5081 60.047C40.6107 59.915 40.7537 59.8233 40.9371 59.772C40.9151 59.7207 40.8674 59.6767 40.7941 59.64C40.7207 59.6033 40.6217 59.585 40.4971 59.585C40.3504 59.585 40.2221 59.6143 40.1121 59.673C40.0094 59.7317 39.9251 59.8123 39.8591 59.915C39.7857 60.0397 39.7344 60.223 39.7051 60.465C39.6757 60.707 39.6611 61.0737 39.6611 61.565V62.324H40.8381V62.544H39.6611V66.867C39.6611 67.2263 39.7564 67.4683 39.9471 67.593C40.1451 67.7103 40.4091 67.769 40.7391 67.769V68C40.5557 67.9927 40.2991 67.9853 39.9691 67.978C39.6391 67.9633 39.2871 67.956 38.9131 67.956C38.6491 67.956 38.3851 67.9633 38.1211 67.978C37.8571 67.9853 37.6591 67.9927 37.5271 68V67.769C37.7984 67.769 37.9891 67.714 38.0991 67.604C38.2164 67.494 38.2751 67.285 38.2751 66.977V62.544H37.4831V62.324H38.2751C38.2751 61.8913 38.2971 61.532 38.3411 61.246C38.3851 60.9527 38.4511 60.7033 38.5391 60.498C38.6344 60.2927 38.7627 60.1093 38.9241 59.948C39.0781 59.7867 39.2797 59.6547 39.5291 59.552C39.7857 59.4493 40.0644 59.398 40.3651 59.398ZM46.8347 62.159C47.3407 62.159 47.788 62.2617 48.1767 62.467C48.5727 62.665 48.8844 62.984 49.1117 63.424C49.3464 63.864 49.4637 64.4433 49.4637 65.162C49.4637 65.8807 49.3464 66.46 49.1117 66.9C48.8844 67.34 48.5727 67.659 48.1767 67.857C47.788 68.055 47.3407 68.154 46.8347 68.154C46.3287 68.154 45.8777 68.055 45.4817 67.857C45.0857 67.659 44.774 67.34 44.5467 66.9C44.3194 66.46 44.2057 65.8807 44.2057 65.162C44.2057 64.4433 44.3194 63.864 44.5467 63.424C44.774 62.984 45.0857 62.665 45.4817 62.467C45.8777 62.2617 46.3287 62.159 46.8347 62.159ZM46.8347 62.379C46.49 62.379 46.2077 62.599 45.9877 63.039C45.775 63.4717 45.6687 64.1793 45.6687 65.162C45.6687 66.1447 45.775 66.8523 45.9877 67.285C46.2077 67.7177 46.49 67.934 46.8347 67.934C47.172 67.934 47.4507 67.7177 47.6707 67.285C47.8907 66.8523 48.0007 66.1447 48.0007 65.162C48.0007 64.1793 47.8907 63.4717 47.6707 63.039C47.4507 62.599 47.172 62.379 46.8347 62.379ZM55.0608 59.387V66.977C55.0608 67.285 55.1158 67.494 55.2258 67.604C55.3431 67.714 55.5375 67.769 55.8088 67.769V68C55.6768 67.9927 55.4751 67.9853 55.2038 67.978C54.9398 67.9633 54.6685 67.956 54.3898 67.956C54.1185 67.956 53.8398 67.9633 53.5538 67.978C53.2751 67.9853 53.0661 67.9927 52.9268 68V67.769C53.1981 67.769 53.3888 67.714 53.4988 67.604C53.6161 67.494 53.6748 67.285 53.6748 66.977V60.707C53.6748 60.377 53.6235 60.135 53.5208 59.981C53.4181 59.8197 53.2201 59.739 52.9268 59.739V59.508C53.1615 59.53 53.3888 59.541 53.6088 59.541C53.8875 59.541 54.1478 59.53 54.3898 59.508C54.6318 59.4787 54.8555 59.4383 55.0608 59.387ZM60.6019 59.508C60.8659 59.508 61.0822 59.5813 61.2509 59.728C61.4195 59.8747 61.5039 60.069 61.5039 60.311C61.5039 60.553 61.4195 60.7473 61.2509 60.894C61.0822 61.0407 60.8659 61.114 60.6019 61.114C60.3379 61.114 60.1215 61.0407 59.9529 60.894C59.7842 60.7473 59.6999 60.553 59.6999 60.311C59.6999 60.069 59.7842 59.8747 59.9529 59.728C60.1215 59.5813 60.3379 59.508 60.6019 59.508ZM61.3719 62.192V66.977C61.3719 67.285 61.4269 67.494 61.5369 67.604C61.6542 67.714 61.8485 67.769 62.1199 67.769V68C61.9879 67.9927 61.7862 67.9853 61.5149 67.978C61.2435 67.9633 60.9685 67.956 60.6899 67.956C60.4185 67.956 60.1435 67.9633 59.8649 67.978C59.5862 67.9853 59.3772 67.9927 59.2379 68V67.769C59.5092 67.769 59.6999 67.714 59.8099 67.604C59.9272 67.494 59.9859 67.285 59.9859 66.977V63.523C59.9859 63.1857 59.9309 62.94 59.8209 62.786C59.7182 62.6247 59.5239 62.544 59.2379 62.544V62.313C59.4725 62.335 59.6999 62.346 59.9199 62.346C60.1912 62.346 60.4479 62.335 60.6899 62.313C60.9392 62.2837 61.1665 62.2433 61.3719 62.192ZM68.3307 62.159C68.8367 62.159 69.284 62.2617 69.6727 62.467C70.0687 62.665 70.3803 62.984 70.6077 63.424C70.8423 63.864 70.9597 64.4433 70.9597 65.162C70.9597 65.8807 70.8423 66.46 70.6077 66.9C70.3803 67.34 70.0687 67.659 69.6727 67.857C69.284 68.055 68.8367 68.154 68.3307 68.154C67.8247 68.154 67.3737 68.055 66.9777 67.857C66.5817 67.659 66.27 67.34 66.0427 66.9C65.8153 66.46 65.7017 65.8807 65.7017 65.162C65.7017 64.4433 65.8153 63.864 66.0427 63.424C66.27 62.984 66.5817 62.665 66.9777 62.467C67.3737 62.2617 67.8247 62.159 68.3307 62.159ZM68.3307 62.379C67.986 62.379 67.7037 62.599 67.4837 63.039C67.271 63.4717 67.1647 64.1793 67.1647 65.162C67.1647 66.1447 67.271 66.8523 67.4837 67.285C67.7037 67.7177 67.986 67.934 68.3307 67.934C68.668 67.934 68.9467 67.7177 69.1667 67.285C69.3867 66.8523 69.4967 66.1447 69.4967 65.162C69.4967 64.1793 69.3867 63.4717 69.1667 63.039C68.9467 62.599 68.668 62.379 68.3307 62.379Z" fill="white"/>
<rect x="34" y="14" width="1" height="36" fill="white"/>
<path d="M7.5 10L8 14V50H7L7.5 10Z" fill="white"/>
</svg>
